<svg width="16" height="16" viewBox="0 0 16 16" fill="none" xmlns="http://www.w3.org/2000/svg">
<g clip-path="url(#clip0_4_84)">
<path d="M1.39125 2.42334C0.623022 2.42334 0 3.04633 0 3.81511C0 4.58333 0.623022 5.2058 1.39125 5.2058C2.15947 5.2058 2.78249 4.58333 2.78249 3.81511C2.78249 3.04633 2.15947 2.42334 1.39125 2.42334Z" fill="white" fill-opacity="0.9"/>
<path d="M1.39125 6.60904C0.623022 6.60904 0 7.23151 0 8.00028C0 8.76851 0.623022 9.39149 1.39125 9.39149C2.15947 9.39149 2.78249 8.76851 2.78249 8.00028C2.78249 7.23151 2.15947 6.60904 1.39125 6.60904Z" fill="white" fill-opacity="0.9"/>
<path d="M1.39125 10.7942C0.623022 10.7942 0 11.4172 0 12.1854C0 12.9537 0.623022 13.5767 1.39125 13.5767C2.15947 13.5767 2.78249 12.9537 2.78249 12.1854C2.78249 11.4172 2.15947 10.7942 1.39125 10.7942Z" fill="white" fill-opacity="0.9"/>
<path d="M14.9538 2.76842H5.05746C4.47976 2.76842 4.01129 3.23688 4.01129 3.81511C4.01129 4.39285 4.47972 4.86128 5.05746 4.86128H14.9538C15.5315 4.86128 16 4.39285 16 3.81511C16 3.23688 15.5315 2.76842 14.9538 2.76842Z" fill="white" fill-opacity="0.9"/>
<path d="M14.9538 6.95358H5.05746C4.47976 6.95358 4.01129 7.42201 4.01129 8.00028C4.01129 8.57802 4.47972 9.04645 5.05746 9.04645H14.9538C15.5315 9.04645 16 8.57802 16 8.00028C16 7.42201 15.5315 6.95358 14.9538 6.95358Z" fill="white" fill-opacity="0.9"/>
<path d="M14.9538 11.1393H5.05746C4.47976 11.1393 4.01129 11.6077 4.01129 12.1854C4.01129 12.7631 4.47972 13.2316 5.05746 13.2316H14.9538C15.5315 13.2316 16 12.7631 16 12.1854C16 11.6076 15.5315 11.1393 14.9538 11.1393Z" fill="white" fill-opacity="0.9"/>
</g>
<defs>
<clipPath id="clip0_4_84">
<rect width="16" height="16" fill="white"/>
</clipPath>
</defs>
</svg>
