<svg width="20" height="20" viewBox="0 0 20 20" fill="none" xmlns="http://www.w3.org/2000/svg">
<g clip-path="url(#clip0_4_144)">
<path d="M18.1788 8.17453H11.82V1.82106C11.82 0.815382 11.0086 0 10.0029 0C8.99723 0 8.18625 0.815383 8.18625 1.82151V8.17893H1.82441C0.818732 8.17893 0.00114712 8.99432 0.00158763 10.0004C0.00114712 10.5031 0.204222 10.9638 0.533282 11.2929C0.862783 11.6228 1.31739 11.8312 1.81957 11.8312H8.18625V18.1798C8.18625 18.6829 8.3858 19.1384 8.7153 19.467C9.0448 19.7965 9.49809 20.0004 10.0011 20.0004C11.0064 20.0004 11.82 19.1851 11.82 18.1798V11.8308H18.1788C19.1844 11.8308 19.9998 11.0083 19.9994 10.0026C19.9989 8.9974 19.1836 8.17453 18.1788 8.17453Z" fill="white" fill-opacity="0.8"/>
</g>
<defs>
<clipPath id="clip0_4_144">
<rect width="20" height="20" fill="white"/>
</clipPath>
</defs>
</svg>
