<svg width="20" height="20" viewBox="0 0 20 20" fill="none" xmlns="http://www.w3.org/2000/svg">
<g clip-path="url(#clip0_5_281)">
<path d="M0.845486 11.511L2.15622 11.5192C2.35222 12.5277 2.74013 13.5077 3.32812 14.3979L2.39713 15.3207C2.0623 15.6515 2.0623 16.1864 2.38897 16.5212L3.39345 17.5379C3.7242 17.8728 4.25911 17.8728 4.59394 17.5461L5.52493 16.6233C6.40692 17.2194 7.38282 17.6237 8.39139 17.8278L8.38323 19.1386C8.37914 19.6082 8.75889 19.9879 9.22847 19.992L10.6576 20.0002C11.1272 20.0042 11.5069 19.6245 11.511 19.1549L11.5192 17.8442C12.5278 17.6482 13.5077 17.2603 14.3979 16.6723L15.3207 17.6033C15.6515 17.9381 16.1864 17.9381 16.5212 17.6114L17.5379 16.6069C17.8728 16.2762 17.8728 15.7413 17.5461 15.4065L16.6233 14.4755C17.2194 13.5935 17.6237 12.6176 17.8279 11.609L19.1386 11.6172C19.6082 11.6213 19.9879 11.2415 19.992 10.7719L20.0002 9.34278C20.0042 8.8732 19.6245 8.49346 19.1549 8.48938L17.8442 8.48121C17.6482 7.47264 17.2603 6.49265 16.6723 5.6025L17.6033 4.67967C17.9381 4.34893 17.9381 3.81402 17.6114 3.47919L16.607 2.46245C16.2762 2.12762 15.7413 2.12762 15.4065 2.45428L14.4755 3.37711C13.5935 2.78095 12.6176 2.3767 11.609 2.17254L11.6172 0.861804C11.6213 0.392226 11.2415 0.0124808 10.7719 0.00839755L9.3428 0.000230988C8.87322 -0.00385229 8.49347 0.375893 8.48939 0.845471L8.47714 2.1562C7.46449 2.3522 6.4845 2.74011 5.59843 3.32811L4.67561 2.39712C4.34486 2.06229 3.80995 2.06229 3.47512 2.38895L2.46247 3.39344C2.12764 3.72418 2.12764 4.2591 2.4543 4.59392L3.37712 5.52491C2.78096 6.4069 2.37672 7.38281 2.17255 8.39138L0.861819 8.38321C0.392241 8.37913 0.0124961 8.75887 0.00841281 9.22845L0.000246247 10.6576C-0.00383704 11.1231 0.375908 11.5069 0.845486 11.511ZM7.32157 7.29297C8.81605 5.81483 11.2211 5.82708 12.6993 7.32156C14.1774 8.81604 14.1652 11.2211 12.6707 12.6992C11.1762 14.1774 8.77114 14.1651 7.29299 12.6707C5.81484 11.1762 5.82709 8.77112 7.32157 7.29297Z" fill="white" fill-opacity="0.9"/>
</g>
<defs>
<clipPath id="clip0_5_281">
<rect width="20" height="20" fill="white"/>
</clipPath>
</defs>
</svg>
